<svg xmlns="http://www.w3.org/2000/svg" viewBox="0 0 145.42 218.67" fill="#0275d8"><g id="Layer_2" data-name="Layer 2"><g id="Layer_1-2" data-name="Layer 1"><path d="M117.68,132c9.77,27.48,16.29,56.13,12.09,86.2l-1.29.52c-2.13-4.14-4.5-8.18-6.35-12.45-3.88-9-7.49-18.06-11.24-27.09a31.88,31.88,0,0,0-1.81-3.54c-4.56-8-4.5-7.84-13.31-4.92-14.45,4.79-29.22,7.65-44.49,4.88-10.49-1.9-19-6.7-23.21-18.21,4.69.89,8.8,2.33,12.89,2.29,8.52-.08,17.19-.15,25.51-1.74,7-1.33,11-6.92,12.28-14.15.54-3,0-4.75-3.29-5.35-4.56-.83-9.09-1.84-13.59-2.92-6.28-1.51-12.65-2.76-18.74-4.84-6.32-2.16-11.09-6.29-12.53-13.8,41.2,6.92,79.5,1.6,114.33-23.47,1.54,9.18-1,17-7.42,23C131.5,121.94,124.61,126.57,117.68,132Z"/><path d="M54.73,116.4c-4.65-1.25-9.79-1.62-13.87-3.89C19.05,100.37,4.37,82.67.39,57.36c-1.28-8.16.67-15.8,4.83-22.9,1.93-3.31,5.63-3.36,7.09.35,1.17,3,1.19,6.41,1.5,9.67.86,9.18.36,18.71,2.66,27.51C21,89.2,32.46,101.4,48,109.86c2.54,1.38,5,2.87,7.53,4.3Z"/><path d="M122.54,99.51c2.23-5.8,4-10.38,5.74-15,5-13.11,9.1-26.39,6.44-40.71A47.3,47.3,0,0,0,124,21.2a41.52,41.52,0,0,1-6.62-9.78c-.75-1.72,0-5.1,1.4-6.47,1.15-1.15,4.8-1.42,6.16-.44,3.69,2.68,7.48,5.74,9.94,9.5,18,27.45,11.79,61.45-9.61,83.57A27.89,27.89,0,0,1,122.54,99.51Z"/><path d="M32.49,90.91c-2.07-2.17-4.79-4-6.1-6.55C14.91,62,14.2,39,23.49,15.67,26.1,9.14,30.79,4.19,37.74,2a5.74,5.74,0,0,1,4.48.41c.75.53.86,2.85.39,4-1.42,3.51-2.77,7.22-5,10.18-16.26,21.33-16.18,44-6,67.6.81,1.88,1.53,3.8,2.29,5.7Z"/><path d="M129.37,63.26c-2-7.74-3.08-16-6.29-23.42C117.49,27,108,17.85,94,14.12A54.55,54.55,0,0,1,82.41,9.7C77.3,7,77.27,3.63,82.64,1.35A17.6,17.6,0,0,1,93.52.51,35.27,35.27,0,0,1,105.64,7c13.59,11,22.73,24.85,25.84,42.28C132.39,54.36,132,59.33,129.37,63.26Z"/><path d="M87.51,113A14.37,14.37,0,0,1,72.93,98.54a14.55,14.55,0,1,1,29.09,0A14.38,14.38,0,0,1,87.51,113Z"/><path d="M32.13,64.18a29.17,29.17,0,0,1-2.45-18.7C32.76,28.27,40.15,13.71,56,4.88A29.29,29.29,0,0,1,66.3,1.48c1.78-.24,4.85,1.29,5.5,2.81s-.63,4.37-2,5.86-3.8,2.66-5.95,3.44c-21.19,7.65-29.18,24.05-30.11,45.2-.08,1.75-.22,3.49-.33,5.24Z"/></g></g></svg>